# xmcd
#
# Track frame offsets:
#	150
#	16767
#	36462
#	48864
#	89788
#	114832
#	131287
#	187710
#	216982
#	248749
#
# Disc length: 3803 seconds
#
# Revision: 3
# Processed by: cddbd v1.5.2PL0 Copyright (c) Steve Scherf et al.
# Submitted via: audiograbber 1.83.01
#
DISCID=7c0ed90a
DTITLE=Various Artist - Der Hammer Hitmix 2005
DYEAR=2005
DGENRE=Schlager
TTITLE0=Jürgen Drews ( LC 12677 ) - Hit Mix
TTITLE1=Andy Borg ( LC 12677 ) - Andy Borg Hit-Mix
TTITLE2=Ireen Sheer ( LC 12677 ) - Ireen Sheer Hit-Mix
TTITLE3=Howard Carpendale ( LC 12677 ) - Howard Carpendale Hit Mix
TTITLE4=G.G.Anderson ( LC 12677 ) - G.G.Anderson Hit-Mix
TTITLE5=Olaf Henning ( LC 12677 ) - Olaf Henning Hit-Mix
TTITLE6=Allstars ( LC 12677 ) - Allstars Hit-Mix
TTITLE7=Klostertaler ( LC 12677 ) - Klostertaler Hit-Mix
TTITLE8=Nockalm Quintett ( LC 12677 ) - Nockalm Quintett Hit Mix
TTITLE9=Kastelruther Spatzen ( LC 12677 ) - Kastelruther Spatzen Hit Mix
EXTD=
EXTT0=
EXTT1=
EXTT2=
EXTT3=
EXTT4=
EXTT5=
EXTT6=
EXTT7=
EXTT8=
EXTT9=
PLAYORDER=
